<?xml version="1.0" encoding="UTF-8"?>
<svg id="Layer_2" data-name="Layer 2" xmlns="http://www.w3.org/2000/svg" viewBox="0 0 44.56 27.47">
  <defs>
    <style>
      .cls-1 {
        fill: #fff;
      }
    </style>
  </defs>
  <g id="Layer_1-2" data-name="Layer 1">
    <path class="cls-1" d="m31.21,27.47c-.25,0-.5-.09-.7-.28-.4-.38-.41-1.02-.02-1.41l10.71-11.04H1c-.55,0-1-.45-1-1s.45-1,1-1h40.2L30.49,1.7c-.38-.4-.38-1.03.02-1.41.4-.38,1.03-.38,1.41.02l12.35,12.73c.08.08.14.17.19.27,0,.02.02.04.02.06.04.11.07.22.07.34h0v.03h0v.03h0c0,.12-.03.24-.07.35,0,.02-.02.04-.02.06-.05.1-.11.19-.19.27l-12.35,12.73c-.2.2-.46.3-.72.3Z"/>
  </g>
</svg>