<?xml version="1.0" encoding="utf-8"?>
<!-- Generator: Adobe Illustrator 27.7.0, SVG Export Plug-In . SVG Version: 6.00 Build 0)  -->
<svg version="1.1" id="Layer_1" xmlns="http://www.w3.org/2000/svg" xmlns:xlink="http://www.w3.org/1999/xlink" x="0px" y="0px"
	 viewBox="0 0 24 24" style="enable-background:new 0 0 24 24;" xml:space="preserve">
<style type="text/css">
	.st0{fill:#FFFFFF;}
</style>
<path class="st0" d="M7,18c-0.3,0-0.5-0.1-0.7-0.3c-0.4-0.4-0.4-1,0-1.4l10-10c0.4-0.4,1-0.4,1.4,0s0.4,1,0,1.4l-10,10
	C7.5,17.9,7.3,18,7,18z"/>
<path class="st0" d="M17,18c-0.6,0-1-0.4-1-1V8H7C6.4,8,6,7.6,6,7s0.4-1,1-1h10c0.6,0,1,0.4,1,1v10C18,17.6,17.6,18,17,18z"/>
</svg>
