<?xml version="1.0" encoding="utf-8"?>
<!-- Generator: Adobe Illustrator 27.7.0, SVG Export Plug-In . SVG Version: 6.00 Build 0)  -->
<svg version="1.1" id="Layer_1" xmlns="http://www.w3.org/2000/svg" xmlns:xlink="http://www.w3.org/1999/xlink" x="0px" y="0px"
	 viewBox="0 0 60 27" style="enable-background:new 0 0 60 27;" xml:space="preserve">
<style type="text/css">
	.st0{fill:#75BF00;}
</style>
<path class="st0" d="M46.7,27c-0.3,0-0.5-0.1-0.7-0.3c-0.4-0.4-0.4-1,0-1.4l10.6-10.8H1.8c-0.6,0-1-0.4-1-1s0.4-1,1-1h54.8L46,1.7
	c-0.4-0.4-0.4-1,0-1.4c0.4-0.4,1-0.4,1.4,0l12.3,12.5c0,0,0,0,0,0c0.1,0.1,0.1,0.2,0.2,0.3l0,0c0,0,0,0,0,0c0,0,0,0,0,0c0,0,0,0,0,0
	c0,0,0,0,0,0c0,0,0,0,0,0l0,0c0,0.1,0.1,0.2,0.1,0.4s0,0.3-0.1,0.4l0,0c0,0,0,0,0,0c0,0,0,0,0,0c0,0,0,0,0,0c0,0,0,0,0,0
	c0,0,0,0,0,0l0,0c0,0.1-0.1,0.2-0.2,0.3c0,0,0,0,0,0L47.4,26.7C47.2,26.9,47,27,46.7,27z"/>
</svg>
