<?xml version="1.0" encoding="utf-8"?>
<!-- Generator: Adobe Illustrator 27.7.0, SVG Export Plug-In . SVG Version: 6.00 Build 0)  -->
<svg version="1.1" id="Layer_1" xmlns="http://www.w3.org/2000/svg" xmlns:xlink="http://www.w3.org/1999/xlink" x="0px" y="0px"
	 viewBox="0 0 45 27" style="enable-background:new 0 0 45 27;" xml:space="preserve">
<style type="text/css">
	.st0{fill:#52555C;}
</style>
<path class="st0" d="M13.3,27c-0.3,0-0.5-0.1-0.7-0.3L0.3,14.2C0.2,14.1,0.2,14,0.1,14c0,0,0,0,0,0c0,0,0,0,0,0c0,0,0,0,0,0
	c0,0,0,0,0,0c0,0,0,0,0-0.1C0,13.8,0,13.7,0,13.5c0,0,0,0,0,0c0,0,0,0,0,0c0,0,0,0,0,0c0,0,0,0,0,0c0,0,0,0,0,0v0c0,0,0,0,0,0
	s0,0,0,0s0,0,0,0v0c0,0,0,0,0,0c0,0,0,0,0,0c0,0,0,0,0,0c0,0,0,0,0,0c0,0,0,0,0,0c0-0.1,0-0.2,0.1-0.4c0,0,0,0,0-0.1c0,0,0,0,0,0
	c0,0,0,0,0,0s0,0,0,0c0,0,0,0,0,0c0-0.1,0.1-0.2,0.2-0.3L12.6,0.3c0.4-0.4,1-0.4,1.4,0c0.4,0.4,0.4,1,0,1.4L3.4,12.5h40
	c0.6,0,1,0.4,1,1s-0.4,1-1,1h-40L14,25.3c0.4,0.4,0.4,1,0,1.4C13.8,26.9,13.6,27,13.3,27z"/>
</svg>
