<?xml version="1.0" encoding="utf-8"?>
<!-- Generator: Adobe Illustrator 27.7.0, SVG Export Plug-In . SVG Version: 6.00 Build 0)  -->
<svg version="1.1" id="Layer_1" xmlns="http://www.w3.org/2000/svg" xmlns:xlink="http://www.w3.org/1999/xlink" x="0px" y="0px"
	 viewBox="0 0 60 28" style="enable-background:new 0 0 60 28;" xml:space="preserve">
<style type="text/css">
	.st0{fill:#75BF00;}
</style>
<path class="st0" d="M13.4,27.5c-0.3,0-0.5-0.1-0.7-0.3L0.3,14.4c-0.1-0.1-0.1-0.2-0.2-0.3c0,0,0,0,0,0C0,14,0,13.9,0,13.8
	c0,0,0,0,0,0l0,0c0,0,0,0,0,0c0,0,0,0,0,0c0,0,0,0,0,0c0-0.1,0-0.2,0.1-0.4c0,0,0,0,0,0c0-0.1,0.1-0.2,0.2-0.3L12.6,0.3
	c0.4-0.4,1-0.4,1.4,0c0.4,0.4,0.4,1,0,1.4l-10.7,11h55c0.6,0,1,0.4,1,1s-0.4,1-1,1h-55l10.7,11c0.4,0.4,0.4,1,0,1.4
	C13.9,27.4,13.6,27.5,13.4,27.5z"/>
</svg>
