<?xml version="1.0" encoding="UTF-8"?>
<svg id="Layer_2" data-name="Layer 2" xmlns="http://www.w3.org/2000/svg" viewBox="0 0 15.96 15.95">
  <defs>
    <style>
      .cls-1 {
        fill: #75bf00;
      }
    </style>
  </defs>
  <g id="Layer_1-2" data-name="Layer 1">
    <path class="cls-1" d="m12.89,15.95H3.07c-1.69,0-3.07-1.38-3.07-3.07V4.29C0,2.6,1.38,1.23,3.07,1.23h.62v-.63c0-.33.27-.6.6-.6s.6.27.6.6v.63h6.18v-.63c0-.33.27-.6.6-.6s.6.27.6.6v.63h.62c1.69,0,3.06,1.38,3.06,3.07v8.59c0,1.69-1.37,3.07-3.06,3.07ZM1.2,6.12v6.77c0,1.03.84,1.87,1.87,1.87h9.83c1.03,0,1.87-.84,1.87-1.87v-6.77H1.2Zm0-1.2h13.56v-.62c0-1.03-.84-1.87-1.87-1.87h-.62v1.24c0,.33-.27.6-.6.6s-.6-.27-.6-.6v-1.24h-6.18v1.24c0,.33-.27.6-.6.6s-.6-.27-.6-.6v-1.24h-.62c-1.03,0-1.87.84-1.87,1.87v.62Zm11.08,7.97h-1.23c-.33,0-.6-.27-.6-.6s.27-.6.6-.6h1.23c.33,0,.6.27.6.6s-.27.6-.6.6Zm-3.69,0h-1.23c-.33,0-.6-.27-.6-.6s.27-.6.6-.6h1.23c.33,0,.6.27.6.6s-.27.6-.6.6Zm-3.69,0h-1.23c-.33,0-.6-.27-.6-.6s.27-.6.6-.6h1.23c.33,0,.6.27.6.6s-.27.6-.6.6Zm7.38-3.69h-1.23c-.33,0-.6-.27-.6-.6s.27-.6.6-.6h1.23c.33,0,.6.27.6.6s-.27.6-.6.6Zm-3.69,0h-1.23c-.33,0-.6-.27-.6-.6s.27-.6.6-.6h1.23c.33,0,.6.27.6.6s-.27.6-.6.6Zm-3.69,0h-1.23c-.33,0-.6-.27-.6-.6s.27-.6.6-.6h1.23c.33,0,.6.27.6.6s-.27.6-.6.6Z"/>
  </g>
</svg>