<?xml version="1.0" encoding="UTF-8"?>
<svg id="Layer_2" data-name="Layer 2" xmlns="http://www.w3.org/2000/svg" viewBox="0 0 9.33 4.78">
  <defs>
    <style>
      .cls-1 {
        fill: #1e1e1e;
      }
    </style>
  </defs>
  <g id="Layer_1-2" data-name="Layer 1">
    <path class="cls-1" d="m9.14.2c-.06-.06-.14-.11-.22-.15-.08-.03-.17-.05-.26-.05s-.18.02-.26.05c-.08.03-.15.08-.22.15l-3.05,3.05c-.06.06-.14.11-.22.15-.08.03-.17.05-.26.05s-.18-.02-.26-.05c-.08-.03-.15-.08-.22-.15L1.14.2c-.06-.06-.14-.11-.22-.15-.08-.03-.17-.05-.26-.05s-.18.02-.26.05c-.08.03-.15.08-.22.15-.12.12-.19.29-.19.47s.07.35.19.47l3.06,3.06c.38.37.88.58,1.41.58s1.04-.21,1.41-.58l3.06-3.06c.12-.12.19-.29.19-.47s-.07-.35-.19-.47Z"/>
  </g>
</svg>