<?xml version="1.0" encoding="UTF-8"?><svg id="b" xmlns="http://www.w3.org/2000/svg" viewBox="0 0 23.8 21.56"><defs><style>.d{stroke-width:0px;}</style></defs><g id="c"><path class="d" d="m12.46,13.72h-2.8c-.39,0-.7-.31-.7-.7s.31-.7.7-.7h2.8c3.01,0,5.46-2.45,5.46-5.46S15.47,1.4,12.46,1.4h-5.6C3.85,1.4,1.4,3.85,1.4,6.86c0,1.26.45,2.49,1.26,3.47.25.3.21.74-.09.99-.3.25-.74.21-.99-.09-1.02-1.23-1.58-2.78-1.58-4.37C0,3.08,3.08,0,6.86,0h5.6c3.78,0,6.86,3.08,6.86,6.86s-3.08,6.86-6.86,6.86Zm11.34.98c0-1.59-.56-3.14-1.58-4.37-.25-.3-.69-.34-.99-.09-.3.25-.34.69-.09.99.81.98,1.26,2.21,1.26,3.47,0,3.01-2.45,5.46-5.46,5.46h-5.6c-3.01,0-5.46-2.45-5.46-5.46s2.45-5.46,5.46-5.46h2.8c.39,0,.7-.31.7-.7s-.31-.7-.7-.7h-2.8c-3.78,0-6.86,3.08-6.86,6.86s3.08,6.86,6.86,6.86h5.6c3.78,0,6.86-3.08,6.86-6.86Z"/></g></svg>