<svg width="26" height="26" viewBox="0 0 26 26" fill="none" xmlns="http://www.w3.org/2000/svg">
<path d="M13 0C10.4288 0 7.91543 0.762437 5.77759 2.1909C3.63975 3.61935 1.97351 5.64968 0.989572 8.02512C0.00563272 10.4006 -0.251811 13.0144 0.249797 15.5362C0.751405 18.0579 1.98954 20.3743 3.80762 22.1924C5.6257 24.0105 7.94208 25.2486 10.4638 25.7502C12.9856 26.2518 15.5995 25.9944 17.9749 25.0104C20.3503 24.0265 22.3807 22.3603 23.8091 20.2224C25.2376 18.0846 26 15.5712 26 13C25.9963 9.55333 24.6254 6.24889 22.1883 3.81173C19.7511 1.37456 16.4467 0.00372784 13 0ZM23.8333 13C23.834 15.1116 23.2139 17.1769 22.0502 18.9388C21.1161 17.899 20.5944 16.5536 20.5833 15.1558V13H14.0833C13.796 13 13.5205 12.8859 13.3173 12.6827C13.1141 12.4795 13 12.204 13 11.9167V10.8333H16.25V6.5H19.4068L20.6083 5.29858C21.63 6.304 22.4414 7.50278 22.9952 8.82502C23.5489 10.1473 23.8338 11.5665 23.8333 13ZM2.21976 14.0433L6.59317 18.4167H10.8333C11.1207 18.4167 11.3962 18.5308 11.5994 18.734C11.8025 18.9371 11.9167 19.2127 11.9167 19.5V23.7781C9.42522 23.5238 7.09843 22.4154 5.33101 20.6411C3.56359 18.8668 2.46435 16.5357 2.21976 14.0433ZM14.0833 23.7781V19.5C14.0833 18.638 13.7409 17.8114 13.1314 17.2019C12.5219 16.5924 11.6953 16.25 10.8333 16.25H7.49017L2.34326 11.1031C2.65328 9.34072 3.39597 7.68289 4.5047 6.27833C5.61342 4.87377 7.05349 3.76643 8.6957 3.05566C10.3379 2.3449 12.1309 2.05293 13.9138 2.20597C15.6966 2.35901 17.4136 2.95226 18.9107 3.9325L18.5098 4.33333H14.0833V8.66667H10.8333V11.9167C10.8333 12.7786 11.1757 13.6053 11.7852 14.2148C12.3947 14.8243 13.2214 15.1667 14.0833 15.1667H18.4167C18.4141 17.2191 19.2206 19.1898 20.6613 20.6516C18.8968 22.424 16.5719 23.529 14.0833 23.7781Z" fill="#75BF00"/>
</svg>
