<?xml version="1.0" encoding="UTF-8"?><svg id="b" xmlns="http://www.w3.org/2000/svg" viewBox="0 0 17.23 17.23"><defs><style>.d{stroke-width:0px;}</style></defs><g id="c"><path class="d" d="m8.4,0C3.64.12-.12,4.12,0,8.92c.09,3.58,2.35,6.75,5.68,7.97.43.15.89-.08,1.05-.51.03-.09.05-.18.05-.27v-4.3h-1.6c-.34,0-.61-.28-.62-.62v-1.51c0-.34.28-.62.62-.62h1.6v-2.16c0-2.34,1.38-3.61,3.38-3.61.56,0,1.08.03,1.47.05.32.03.57.3.57.62v1.27c0,.34-.28.61-.62.62h-.78c-1.1,0-1.3.55-1.3,1.33v1.88h1.77c.34,0,.61.28.61.62,0,.03,0,.05,0,.08l-.19,1.5c-.04.31-.3.54-.61.55h-1.59v4.58c0,.46.38.84.84.84.06,0,.11,0,.17-.02,4.65-1.06,7.56-5.73,6.52-10.41C16.12,2.75,12.51-.09,8.4,0Z"/></g></svg>