<?xml version="1.0" encoding="utf-8"?>
<!-- Generator: Adobe Illustrator 27.7.0, SVG Export Plug-In . SVG Version: 6.00 Build 0)  -->
<svg version="1.1" id="Layer_1" xmlns="http://www.w3.org/2000/svg" xmlns:xlink="http://www.w3.org/1999/xlink" x="0px" y="0px"
	 viewBox="0 0 16 16" style="enable-background:new 0 0 16 16;" xml:space="preserve">
<style type="text/css">
	.st0{clip-path:url(#SVGID_00000074405549507860256500000016307864032822776476_);}
	.st1{fill:#75BF00;}
</style>
<g>
	<defs>
		<rect id="SVGID_1_" width="16" height="16"/>
	</defs>
	<clipPath id="SVGID_00000034065331005880258390000006509029443330751878_">
		<use xlink:href="#SVGID_1_"  style="overflow:visible;"/>
	</clipPath>
	<g style="clip-path:url(#SVGID_00000034065331005880258390000006509029443330751878_);">
		<path class="st1" d="M11.8,0.9c-0.9,0-1.7,0.3-2.4,0.8C8.7,2.3,8.3,2.9,8,3.4C7.7,2.9,7.3,2.3,6.6,1.8C5.9,1.2,5.1,0.9,4.2,0.9
			C1.8,0.9,0,2.9,0,5.5c0,2.8,2.3,4.8,5.7,7.7c0.6,0.5,1.3,1.1,1.9,1.7C7.8,15,7.9,15.1,8,15.1s0.2,0,0.3-0.1
			c0.7-0.6,1.4-1.2,1.9-1.7c3.5-2.9,5.7-4.9,5.7-7.7C16,2.9,14.2,0.9,11.8,0.9z"/>
	</g>
</g>
</svg>
