<?xml version="1.0" encoding="utf-8"?>
<!-- Generator: Adobe Illustrator 27.7.0, SVG Export Plug-In . SVG Version: 6.00 Build 0)  -->
<svg version="1.1" id="Layer_1" xmlns="http://www.w3.org/2000/svg" xmlns:xlink="http://www.w3.org/1999/xlink" x="0px" y="0px"
	 viewBox="0 0 24 24" style="enable-background:new 0 0 24 24;" xml:space="preserve">
<path d="M16,23c-0.1,0-0.2,0-0.3,0c-0.1,0-0.1,0-0.2-0.1c0,0,0,0,0,0L9,19.2l-6.5,3.7c-0.3,0.2-0.7,0.2-1,0C1.2,22.7,1,22.4,1,22V6
	c0-0.4,0.2-0.7,0.5-0.9l7-4c0,0,0,0,0,0c0.1,0,0.2-0.1,0.3-0.1C8.8,1,8.9,1,9,1c0,0,0,0,0,0c0.1,0,0.2,0,0.3,0
	c0.1,0,0.2,0.1,0.2,0.1c0,0,0,0,0,0L16,4.8l5.5-3.7c0.3-0.2,0.7-0.2,1,0C22.8,1.3,23,1.6,23,2v16c0,0.3-0.2,0.6-0.4,0.8l-6,4
	c0,0,0,0-0.1,0c-0.1,0-0.1,0.1-0.2,0.1C16.2,23,16.1,23,16,23C16,23,16,23,16,23z M10,17.4l5,2.9V6.6l-5-2.9V17.4z M3,6.6v13.7
	l5-2.9V3.7L3,6.6z M17,6.5v13.6l4-2.7V3.9L17,6.5z"/>
</svg>
