<?xml version="1.0" encoding="UTF-8"?>
<svg id="Layer_2" data-name="Layer 2" xmlns="http://www.w3.org/2000/svg" viewBox="0 0 20 20">
  <defs>
    <style>
      .cls-1 {
        fill: #fff;
      }
    </style>
  </defs>
  <g id="Layer_1-2" data-name="Layer 1">
    <path class="cls-1" d="m17,20H3c-1.65,0-3-1.35-3-3V3C0,1.35,1.35,0,3,0h14c1.65,0,3,1.35,3,3v14c0,1.65-1.35,3-3,3ZM3,2c-.55,0-1,.45-1,1v14c0,.55.45,1,1,1h14c.55,0,1-.45,1-1V3c0-.55-.45-1-1-1H3Z"/>
    <path class="cls-1" d="m6.5,9c-1.38,0-2.5-1.12-2.5-2.5s1.12-2.5,2.5-2.5,2.5,1.12,2.5,2.5-1.12,2.5-2.5,2.5Zm0-3c-.28,0-.5.22-.5.5s.22.5.5.5.5-.22.5-.5-.22-.5-.5-.5Z"/>
    <path class="cls-1" d="m3,20c-.26,0-.51-.1-.71-.29-.39-.39-.39-1.02,0-1.41L13.29,7.29c.39-.39,1.02-.39,1.41,0l5,5c.39.39.39,1.02,0,1.41s-1.02.39-1.41,0l-4.29-4.29L3.71,19.71c-.2.2-.45.29-.71.29Z"/>
  </g>
</svg>