<?xml version="1.0" encoding="UTF-8"?><svg id="b" xmlns="http://www.w3.org/2000/svg" viewBox="0 0 16 17"><defs><style>.d{stroke-width:0px;}</style></defs><g id="c"><path class="d" d="m8,4.14c-.81,0-1.6.26-2.28.73-.67.48-1.2,1.16-1.51,1.96-.31.8-.39,1.67-.23,2.52.16.85.55,1.62,1.12,2.23.57.61,1.3,1.02,2.1,1.19.8.17,1.62.08,2.37-.25s1.39-.89,1.84-1.61c.45-.72.69-1.56.69-2.42,0-.57-.1-1.14-.31-1.67-.21-.53-.51-1.01-.89-1.42-.38-.4-.83-.73-1.33-.94-.5-.22-1.03-.33-1.57-.33Zm0,7.19c-.53,0-1.04-.17-1.48-.48-.44-.31-.78-.75-.98-1.27-.2-.52-.25-1.09-.15-1.64.1-.55.36-1.05.73-1.45.37-.4.85-.67,1.37-.78.52-.11,1.05-.05,1.54.16.49.21.9.58,1.2,1.04.29.47.45,1.01.45,1.57,0,.75-.28,1.47-.78,2-.5.53-1.18.83-1.88.83h0Zm5.22-7.37c0,.2-.06.4-.16.56-.11.17-.25.3-.43.37-.17.08-.37.1-.55.06-.19-.04-.36-.14-.49-.28-.13-.14-.22-.32-.26-.52-.04-.2-.02-.4.05-.59.07-.19.19-.34.35-.46.16-.11.34-.17.53-.17.13,0,.25.03.37.08.12.05.22.13.31.22.09.09.16.21.21.33.05.12.07.26.07.39h0Zm2.72,1.03c.03-1.32-.44-2.6-1.29-3.56C13.74.53,12.54.04,11.3.06,9.98-.02,6.02-.02,4.7.06c-1.24-.03-2.44.46-3.35,1.37C.5,2.39.03,3.67.06,4.99-.02,6.39-.02,10.6.06,12.01c-.03,1.32.44,2.6,1.29,3.56.91.9,2.11,1.4,3.35,1.37,1.32.08,5.28.08,6.6,0,1.24.03,2.45-.47,3.35-1.37.85-.96,1.32-2.24,1.29-3.56.08-1.4.08-5.61,0-7.01h0Zm-1.71,8.52c-.14.37-.34.7-.6.98-.26.28-.57.49-.92.64-1.05.44-3.55.34-4.71.34s-3.67.1-4.71-.34c-.34-.14-.66-.36-.92-.64-.26-.28-.47-.61-.6-.98-.42-1.12-.32-3.77-.32-5.01s-.09-3.9.32-5.01c.14-.37.34-.7.6-.98s.57-.5.92-.64c1.05-.44,3.55-.34,4.71-.34s3.67-.1,4.71.34c.34.14.66.36.92.64.26.28.47.61.6.98.42,1.12.32,3.77.32,5.01s.1,3.9-.32,5.01h0Z"/></g></svg>