<svg xmlns="http://www.w3.org/2000/svg" viewBox="0 0 21.35 21.35"><path d="m10.67,0C4.78,0,0,4.78,0,10.67s4.78,10.67,10.67,10.67,10.68-4.78,10.68-10.67S16.57,0,10.67,0Zm-3.11,16.13h-2.6v-7.82h2.6v7.82Zm-1.29-8.89h-.02c-.82,0-1.48-.67-1.47-1.49,0-.82.67-1.48,1.49-1.47.82,0,1.48.67,1.47,1.49-.01.82-.67,1.47-1.47,1.47Zm10.68,8.89h-2.6v-4.19c0-1.05-.38-1.77-1.32-1.77-.6,0-1.13.38-1.34.95-.06.2-.1.42-.08.64v4.37h-2.6s.03-7.09,0-7.82h2.6v1.1c.48-.84,1.38-1.33,2.34-1.29,1.71,0,2.99,1.11,2.99,3.52v4.49Z"/></svg>