<svg width="30" height="30" viewBox="0 0 30 30" fill="none" xmlns="http://www.w3.org/2000/svg">
<path d="M29.389 12.9376C28.865 9.11834 26.8453 5.66369 23.7741 3.33361C20.703 1.00353 16.832 -0.0111127 13.0128 0.512897C9.19354 1.03691 5.73888 3.05664 3.4088 6.12779C1.07872 9.19893 0.0640827 13.0699 0.588092 16.8891C1.01981 20.0502 2.47246 22.9837 4.72496 25.2432C6.97746 27.5026 9.90647 28.9643 13.0662 29.4057C13.7128 29.4904 14.3641 29.533 15.0162 29.5332C17.6507 29.5375 20.2359 28.8186 22.49 27.4548C22.6482 27.3595 22.7861 27.234 22.8957 27.0854C23.0054 26.9368 23.0848 26.7681 23.1293 26.5888C23.1738 26.4096 23.1825 26.2233 23.155 26.0407C23.1275 25.8581 23.0643 25.6827 22.969 25.5245C22.8737 25.3663 22.7482 25.2284 22.5996 25.1187C22.4511 25.009 22.2823 24.9296 22.1031 24.8852C21.7411 24.7953 21.3582 24.853 21.0387 25.0454C19.4343 26.0084 17.6227 26.5732 15.7553 26.6926C13.8878 26.8119 12.019 26.4823 10.3051 25.7314C8.59114 24.9805 7.08195 23.8301 5.90374 22.3764C4.72552 20.9227 3.91256 19.208 3.53285 17.3757C3.15313 15.5434 3.21771 13.6468 3.72118 11.8446C4.22465 10.0424 5.15237 8.38696 6.42674 7.01676C7.7011 5.64657 9.28506 4.60146 11.0461 3.96888C12.8071 3.33629 14.6941 3.13461 16.549 3.38071C18.272 3.60979 19.9224 4.21927 21.3807 5.16499C22.839 6.11071 24.0687 7.36898 24.9807 8.84865C25.8926 10.3283 26.464 11.9923 26.6534 13.7201C26.8429 15.4478 26.6456 17.1961 26.0759 18.8382C25.9281 19.2331 25.661 19.5721 25.3117 19.8083C24.9625 20.0445 24.5484 20.1662 24.1268 20.1563C23.5714 20.1556 23.0388 19.9346 22.6461 19.5418C22.2533 19.149 22.0323 18.6165 22.0315 18.061V9.37509C22.0315 9.00212 21.8834 8.64444 21.6196 8.38072C21.3559 8.11699 20.9982 7.96884 20.6253 7.96884C20.2523 7.96884 19.8946 8.11699 19.6309 8.38072C19.3672 8.64444 19.219 9.00212 19.219 9.37509V9.38821C18.153 8.58359 16.8798 8.09926 15.5485 7.9919C14.2171 7.88453 12.8828 8.15857 11.7016 8.78195C10.5203 9.40533 9.54107 10.3523 8.87841 11.5119C8.21575 12.6716 7.89709 13.996 7.95973 15.3301C8.02237 16.6643 8.46371 17.953 9.23211 19.0455C10.0005 20.138 11.0642 20.989 12.2986 21.4989C13.5331 22.0089 14.8872 22.1567 16.2026 21.9251C17.518 21.6935 18.7402 21.092 19.7262 20.191C20.1246 21.0208 20.7487 21.7215 21.5271 22.2128C22.3054 22.7041 23.2064 22.9661 24.1268 22.9688C25.133 22.9785 26.1172 22.6747 26.9428 22.0994C27.7684 21.5242 28.3943 20.7061 28.7337 19.7588C29.4916 17.5696 29.7162 15.2311 29.389 12.9376ZM15.0003 19.2188C14.1659 19.2188 13.3502 18.9714 12.6565 18.5079C11.9627 18.0443 11.422 17.3854 11.1027 16.6145C10.7834 15.8437 10.6998 14.9954 10.8626 14.177C11.0254 13.3587 11.4272 12.607 12.0172 12.017C12.6072 11.427 13.3589 11.0252 14.1772 10.8624C14.9956 10.6996 15.8438 10.7832 16.6147 11.1025C17.3856 11.4218 18.0445 11.9625 18.508 12.6563C18.9716 13.35 19.219 14.1657 19.219 15.0001C19.2178 16.1186 18.7729 17.1909 17.982 17.9818C17.1911 18.7727 16.1188 19.2176 15.0003 19.2188Z" fill="white" fill-opacity="0.35"/>
</svg>
