<?xml version="1.0" encoding="utf-8"?>
<!-- Generator: Adobe Illustrator 27.7.0, SVG Export Plug-In . SVG Version: 6.00 Build 0)  -->
<svg version="1.1" id="Layer_1" xmlns="http://www.w3.org/2000/svg" xmlns:xlink="http://www.w3.org/1999/xlink" x="0px" y="0px"
	 viewBox="0 0 20 20" style="enable-background:new 0 0 20 20;" xml:space="preserve">
<style type="text/css">
	.st0{fill:#FFFFFF;}
</style>
<path class="st0" d="M16.7,17.7H3.3c-1.5,0-2.7-1.2-2.7-2.7V5c0-1.5,1.2-2.7,2.7-2.7h13.3c1.5,0,2.7,1.2,2.7,2.7v10
	C19.3,16.5,18.1,17.7,16.7,17.7z M3.3,4.3C3,4.3,2.7,4.6,2.7,5v10c0,0.4,0.3,0.7,0.7,0.7h13.3c0.4,0,0.7-0.3,0.7-0.7V5
	c0-0.4-0.3-0.7-0.7-0.7H3.3z"/>
<path class="st0" d="M10,11.8c-0.2,0-0.4-0.1-0.6-0.2L1.1,5.8C0.6,5.5,0.5,4.9,0.8,4.4C1.2,4,1.8,3.9,2.2,4.2L10,9.6l7.8-5.4
	c0.5-0.3,1.1-0.2,1.4,0.2c0.3,0.5,0.2,1.1-0.2,1.4l-8.3,5.8C10.4,11.8,10.2,11.8,10,11.8z"/>
</svg>
