<?xml version="1.0" encoding="UTF-8"?>
<svg id="Layer_2" data-name="Layer 2" xmlns="http://www.w3.org/2000/svg" viewBox="0 0 22 22.01">
  <g id="Layer_1-2" data-name="Layer 1">
    <path d="m15,22.01c-.09,0-.17-.01-.26-.03-.07-.02-.14-.05-.21-.08-.02,0-.03-.02-.05-.03l-6.48-3.71-6.5,3.72c-.31.18-.69.17-1,0-.31-.18-.5-.51-.5-.87V5.01c0-.36.19-.69.5-.87L7.49.15s0,0,0,0c.08-.05.16-.08.25-.1.08-.02.17-.05.25-.03h0c.09,0,.17.01.26.03.09.02.17.06.24.1,0,0,0,0,.01,0l6.45,3.68L20.45.17c.31-.2.7-.22,1.03-.05.33.17.53.51.53.88v16c0,.33-.17.65-.45.83l-5.98,3.99s-.04.03-.07.04c-.07.04-.14.07-.22.1-.08.02-.17.04-.25.04h-.04Zm-6-5.58l5,2.86V5.59l-5-2.86v13.7ZM2,5.59v13.7l5-2.86V2.73l-5,2.86Zm14-.04v13.6l4-2.67V2.87l-4,2.67Z"/>
  </g>
</svg>