<?xml version="1.0" encoding="utf-8"?>
<!-- Generator: Adobe Illustrator 27.7.0, SVG Export Plug-In . SVG Version: 6.00 Build 0)  -->
<svg version="1.1" id="Layer_1" xmlns="http://www.w3.org/2000/svg" xmlns:xlink="http://www.w3.org/1999/xlink" x="0px" y="0px"
	 viewBox="0 0 19 26" style="enable-background:new 0 0 19 26;" xml:space="preserve">
<style type="text/css">
	.st0{fill:#03246B;}
</style>
<path class="st0" d="M9.6,0.9c-4.9,0-8.9,4-8.9,9C0.8,16,8.7,25.1,9,25.4c0.3,0.4,0.9,0.4,1.2,0c0.3-0.4,8.3-9.4,8.3-15.6
	C18.5,4.9,14.5,0.9,9.6,0.9z M9.6,14.4c-2.5,0-4.5-2-4.5-4.5c0-2.5,2-4.5,4.5-4.5c2.5,0,4.5,2,4.5,4.5C14.1,12.4,12.1,14.4,9.6,14.4
	z"/>
</svg>
