<?xml version="1.0" encoding="utf-8"?>
<!-- Generator: Adobe Illustrator 27.7.0, SVG Export Plug-In . SVG Version: 6.00 Build 0)  -->
<svg version="1.1" id="Layer_1" xmlns="http://www.w3.org/2000/svg" xmlns:xlink="http://www.w3.org/1999/xlink" x="0px" y="0px"
	 viewBox="0 0 30 30" style="enable-background:new 0 0 30 30;" xml:space="preserve">
<style type="text/css">
	.st0{fill:#FFFFFF;}
</style>
<g>
	<g>
		<g>
			<path class="st0" d="M10.9,22v5.8c0,0.4,0.3,0.8,0.6,0.9c0.1,0,0.2,0,0.3,0c0.3,0,0.6-0.1,0.8-0.4l3.4-4.6L10.9,22z"/>
			<path class="st0" d="M29.6,0.2c-0.3-0.2-0.7-0.2-1-0.1L0.5,14.8C0.2,15,0,15.3,0,15.7c0,0.4,0.3,0.7,0.6,0.8l7.8,2.7L25.1,4.9
				L12.2,20.5L25.3,25c0.1,0,0.2,0,0.3,0c0.2,0,0.3,0,0.5-0.1s0.4-0.4,0.4-0.7L30,1.1C30,0.7,29.9,0.4,29.6,0.2z"/>
		</g>
	</g>
</g>
</svg>
