<?xml version="1.0" encoding="utf-8"?>
<!-- Generator: Adobe Illustrator 27.7.0, SVG Export Plug-In . SVG Version: 6.00 Build 0)  -->
<svg version="1.1" id="Layer_1" xmlns="http://www.w3.org/2000/svg" xmlns:xlink="http://www.w3.org/1999/xlink" x="0px" y="0px"
	 viewBox="0 0 20 20" style="enable-background:new 0 0 20 20;" xml:space="preserve">
<style type="text/css">
	.st0{fill:#75BF00;}
</style>
<path class="st0" d="M19.8,13.6c-0.9-1.7-4.6-1.9-6.6-1.8c-1.2-1.2-2.5-2.7-3.5-4.1c1.1-3.2,1.3-5.3,0.8-6.3C9.8,0,8.8-0.2,8.1,0.1
	c-1.2,0.5-2,2.6-1.1,5.4C7.2,6.3,7.6,7,8,7.8C7.4,9.5,6.6,11.3,5.8,13c-2,0.7-4.2,1.8-5.4,3.6c-0.5,0.7-0.5,1.6-0.2,2.4
	c0.6,1.3,1.9,1.6,3.4,0.1c0.6-0.6,1.2-1.3,1.8-2.4c0.5-0.7,0.9-1.5,1.4-2.4c1.8-0.5,3.8-0.9,5.7-1c1,1,1.8,1.7,2,1.8
	c0.8,0.8,2.2,1.5,3.4,1.4c0.7-0.1,1.2-0.4,1.7-1C20.2,14.6,20,13.9,19.8,13.6z M4.3,15.7c-1.6,2.5-2.4,2.7-2.5,2.8
	c0,0-0.1-0.1-0.1-0.2c-0.1-0.3-0.1-0.6,0.1-0.9c0.6-0.9,1.6-1.7,3-2.3C4.5,15.3,4.4,15.5,4.3,15.7z M8.7,1.5
	C8.7,1.5,8.7,1.5,8.7,1.5C8.8,1.5,9,1.7,9.2,2c0.2,0.3,0.2,1.5-0.5,3.9C8.6,5.6,8.5,5.3,8.4,5.1C7.7,2.9,8.3,1.7,8.7,1.5z M7.8,12.4
	c0.5-1,0.9-2.1,1.3-3.1c0.7,0.9,1.4,1.7,2.2,2.5C10.1,12,8.9,12.1,7.8,12.4z M18.3,14.6c-0.2,0.3-0.4,0.4-0.6,0.4
	c-0.8,0.1-1.8-0.7-2.2-1c0,0,0,0,0,0c0,0-0.3-0.3-0.8-0.7c0,0,0,0,0,0c2.3,0.1,3.4,0.7,3.6,1C18.5,14.3,18.4,14.5,18.3,14.6z"/>
</svg>
