<?xml version="1.0" encoding="UTF-8"?>
<svg id="Layer_2" data-name="Layer 2" xmlns="http://www.w3.org/2000/svg" viewBox="0 0 19.56 19.56">
  <defs>
    <style>
      .cls-1 {
        fill: #231f20;
      }
    </style>
  </defs>
  <g id="Layer_1-2" data-name="Layer 1">
    <path class="cls-1" d="m16.83,6.23h.94c.47,0,.92.19,1.26.52.33.33.52.79.52,1.26v3.56c0,.47-.19.92-.52,1.26-.33.33-.79.52-1.26.52h-.94c-.22,1.72-1.05,3.3-2.35,4.44-1.3,1.15-2.97,1.78-4.7,1.78v-1.78c1.41,0,2.77-.56,3.77-1.56s1.56-2.36,1.56-3.77v-5.33c0-1.41-.56-2.77-1.56-3.77-1-1-2.36-1.56-3.77-1.56s-2.77.56-3.77,1.56c-1,1-1.56,2.36-1.56,3.77v6.22H1.78c-.47,0-.92-.19-1.26-.52-.33-.33-.52-.79-.52-1.26v-3.56c0-.47.19-.92.52-1.26.33-.33.79-.52,1.26-.52h.94c.22-1.72,1.05-3.3,2.35-4.45,1.3-1.15,2.97-1.78,4.71-1.78s3.41.63,4.71,1.78c1.3,1.15,2.14,2.73,2.35,4.45Zm-15.06,1.78v3.56h.89v-3.56h-.89Zm15.11,0v3.56h.89v-3.56h-.89Zm-10.88,5.14l.94-1.51c.85.53,1.83.81,2.83.81s1.98-.28,2.83-.81l.94,1.51c-1.13.71-2.44,1.08-3.77,1.08s-2.64-.37-3.77-1.08Z"/>
  </g>
</svg>