<?xml version="1.0" encoding="utf-8"?>
<!-- Generator: Adobe Illustrator 27.7.0, SVG Export Plug-In . SVG Version: 6.00 Build 0)  -->
<svg version="1.1" id="Layer_1" xmlns="http://www.w3.org/2000/svg" xmlns:xlink="http://www.w3.org/1999/xlink" x="0px" y="0px"
	 viewBox="0 0 31 45" style="enable-background:new 0 0 31 45;" xml:space="preserve">
<style type="text/css">
	.st0{fill:#FFFFFF;}
</style>
<path class="st0" d="M29.5,19c-0.3-0.4-0.2-1,0.2-1.3c0,0,0,0,0,0c0.5-0.4,0.9-1.1,0.9-1.8c0-0.7-0.3-1.4-0.9-1.8c0,0,0,0,0,0
	c-0.2-0.2-0.3-0.5-0.3-0.8c0-0.2,0.1-0.4,0.1-0.5c0.2-0.4,0.3-0.8,0.3-1.2c0-1-0.6-1.9-1.6-2.2c-0.5-0.2-0.8-0.7-0.7-1.2
	c0,0,0,0,0,0c0.1-0.7-0.1-1.4-0.5-1.9c-0.4-0.5-1.1-0.9-1.9-0.9c-0.5,0-0.9-0.4-1-0.9c-0.1-0.7-0.5-1.3-1.1-1.7
	c-0.6-0.3-1.3-0.4-2-0.2c0,0,0,0-0.1,0c-0.1,0-0.2,0.1-0.4,0.1c-0.4,0-0.7-0.2-0.9-0.5c-0.4-0.7-1.2-1.2-2.1-1.2
	c-0.6,0-1.1,0.2-1.5,0.6c-0.4,0.3-1,0.3-1.4,0c-0.4-0.4-1-0.6-1.5-0.6c-0.9,0-1.6,0.5-2.1,1.2C11,2.5,10.4,2.7,9.9,2.5
	C9.7,2.4,9.4,2.4,9.1,2.4c-1.2,0-2.1,0.8-2.3,2c-0.1,0.5-0.5,0.9-1,0.9C5,5.2,4.4,5.5,3.9,6.1C3.5,6.6,3.3,7.3,3.4,8c0,0,0,0,0,0
	c0,0.1,0,0.1,0,0.2c0,0.4-0.3,0.8-0.7,1c-1,0.3-1.6,1.2-1.6,2.2c0,0.4,0.1,0.8,0.3,1.2c0.3,0.4,0.2,1-0.2,1.3c0,0,0,0,0,0
	c-0.6,0.5-0.9,1.1-0.9,1.8s0.3,1.4,0.8,1.8c0,0,0,0,0.1,0c0.2,0.2,0.4,0.5,0.4,0.8c0,0.2-0.1,0.4-0.1,0.5c-0.2,0.4-0.3,0.8-0.3,1.2
	c0,1,0.6,1.9,1.6,2.2c0.5,0.2,0.8,0.7,0.7,1.2c0,0,0,0,0,0c-0.1,0.7,0.1,1.4,0.5,1.9c0.5,0.5,1.1,0.8,1.8,0.8c0.5,0,1,0.4,1.1,0.9
	c0.2,1.1,1.1,1.9,2.2,2c0.3,0,0.7,0,1-0.1c0,0,0,0,0,0c0.5-0.2,1,0,1.2,0.4c0,0,0,0,0,0c0.4,0.7,1.2,1.2,2.1,1.2
	c0.4,0,0.8-0.1,1.2-0.3c0.1-0.1,0.2-0.2,0.4-0.3c0.3-0.3,0.8-0.3,1.2-0.1c0.1,0,0.1,0.1,0.2,0.1c0.5,0.5,1.2,0.7,1.9,0.5
	c0.7-0.1,1.3-0.5,1.6-1.2c0,0,0,0,0,0c0.3-0.4,0.8-0.6,1.2-0.4c0,0,0,0,0,0c0.3,0.1,0.6,0.2,0.8,0.2c1.2,0,2.1-0.8,2.3-2
	c0.1-0.5,0.5-0.9,1-0.9c0.7,0,1.4-0.3,1.8-0.8c0.5-0.5,0.6-1.2,0.5-1.9c0,0,0,0,0,0c-0.1-0.5,0.2-1,0.6-1.2c0,0,0,0,0,0
	c0.7-0.2,1.2-0.8,1.4-1.4C30,20.4,29.9,19.6,29.5,19C29.6,19,29.6,19,29.5,19z M29,16.6C28.9,16.6,28.9,16.6,29,16.6
	c-0.9,0.7-1.1,2-0.6,3c0,0,0,0,0,0.1c0.2,0.3,0.2,0.6,0.1,0.9c-0.1,0.3-0.3,0.5-0.6,0.6c0,0,0,0,0,0c-1.1,0.4-1.8,1.5-1.5,2.6
	c0,0,0,0,0,0c0.1,0.3,0,0.6-0.2,0.9c-0.2,0.2-0.5,0.4-0.8,0.4c-1.1,0-2.2,0.8-2.3,2c-0.1,0.5-0.5,0.9-1,0.9c-0.1,0-0.2,0-0.3,0
	c0,0-0.1,0-0.1,0c-1.1-0.4-2.3,0.1-2.8,1.1c0,0,0,0,0,0c-0.2,0.3-0.4,0.4-0.7,0.5c-0.3,0.1-0.6,0-0.9-0.2c-0.1-0.1-0.3-0.2-0.4-0.3
	c-0.8-0.5-1.9-0.4-2.7,0.3c0,0-0.1,0.1-0.2,0.1c-0.5,0.3-1.1,0.1-1.4-0.3c0,0,0,0,0,0c-0.6-1-1.8-1.5-2.9-1.1c0,0,0,0-0.1,0
	c-0.1,0-0.2,0.1-0.4,0c-0.5,0-0.9-0.4-1-0.9c-0.2-1.1-1.2-2-2.4-2c-0.3,0-0.6-0.1-0.8-0.4c-0.2-0.2-0.3-0.6-0.2-0.9c0,0,0,0,0,0
	c0.2-1.1-0.4-2.3-1.5-2.6c-0.4-0.1-0.7-0.5-0.7-1c0-0.2,0.1-0.4,0.1-0.5c0.2-0.4,0.3-0.8,0.3-1.2c0-0.7-0.3-1.4-0.8-1.8c0,0,0,0,0,0
	c-0.2-0.2-0.4-0.5-0.4-0.8c0-0.3,0.1-0.6,0.3-0.8c0,0,0,0,0,0c0.9-0.7,1.1-2,0.5-3c-0.1-0.2-0.2-0.3-0.2-0.5c0-0.4,0.2-0.8,0.7-1
	c0.9-0.3,1.6-1.2,1.6-2.2c0-0.1,0-0.3,0-0.4c0,0,0,0,0,0c-0.1-0.3,0-0.6,0.2-0.9c0.2-0.2,0.5-0.4,0.8-0.4h0.1c1.1,0,2.1-0.8,2.3-2
	c0.1-0.5,0.5-0.9,1-0.9c0.1,0,0.3,0,0.4,0.1c0.3,0.1,0.6,0.2,0.9,0.2c0.9,0,1.6-0.5,2-1.2C12.7,2.1,13.5,2,14,2.4
	c0.9,0.7,2.2,0.7,3.1,0c0.5-0.4,1.3-0.3,1.6,0.3c0.4,0.8,1.2,1.2,2.1,1.2c0.3,0,0.6,0,0.8-0.1c0,0,0,0,0.1,0
	c0.3-0.1,0.6-0.1,0.9,0.1c0.3,0.2,0.5,0.4,0.5,0.7c0.2,1.1,1.2,2,2.4,2c0.3,0,0.6,0.1,0.8,0.4c0.2,0.2,0.3,0.6,0.2,0.9c0,0,0,0,0,0
	c-0.2,1.1,0.5,2.3,1.6,2.6c0.4,0.1,0.7,0.5,0.7,1c0,0.2-0.1,0.4-0.1,0.5c-0.2,0.4-0.3,0.8-0.3,1.2c0,0.7,0.3,1.4,0.9,1.8
	c0,0,0,0,0,0c0.2,0.2,0.3,0.5,0.3,0.8C29.3,16.1,29.2,16.4,29,16.6z"/>
<path class="st0" d="M15.5,5.2C9.6,5.2,4.9,9.9,4.9,15.8c0,3.9,2.1,7.5,5.5,9.3c0,0,0,0,0,0c0.8,0.4,1.6,0.8,2.4,1
	c0.8,0.2,1.7,0.3,2.6,0.3c5.9,0,10.6-4.8,10.6-10.6C26.1,9.9,21.4,5.2,15.5,5.2z M15.5,25.2c-0.8,0-1.6-0.1-2.3-0.3
	c-0.7-0.2-1.5-0.5-2.1-0.8c0,0,0,0,0,0c-3-1.6-4.9-4.8-4.9-8.2c0-5.1,4.2-9.3,9.3-9.3c5.1,0,9.3,4.2,9.3,9.3
	C24.8,21,20.6,25.2,15.5,25.2z"/>
<path class="st0" d="M21.4,13.9l-3.7-0.5L16.1,10c-0.2-0.4-1-0.4-1.2,0l-1.6,3.3l-3.7,0.5c-0.2,0-0.4,0.2-0.5,0.4
	C9,14.5,9,14.8,9.2,15l2.7,2.6l-0.6,3.7c0,0.2,0.1,0.5,0.3,0.6c0.2,0.2,0.5,0.2,0.7,0l3.3-1.7l3.3,1.7c0.1,0,0.2,0.1,0.3,0.1
	c0.1,0,0.3,0,0.4-0.1c0.2-0.2,0.3-0.4,0.3-0.6l-0.6-3.7l2.7-2.6c0.2-0.2,0.2-0.4,0.2-0.7C21.9,14.1,21.7,13.9,21.4,13.9z M17.9,16.9
	c-0.2,0.2-0.2,0.4-0.2,0.6l0.5,2.7l-2.4-1.3c-0.1,0-0.2-0.1-0.3-0.1c-0.1,0-0.2,0-0.3,0.1l-2.4,1.3l0.5-2.7c0-0.2,0-0.4-0.2-0.6
	l-2-1.9l2.7-0.4c0.2,0,0.4-0.2,0.5-0.4l1.2-2.5l1.2,2.5c0.1,0.2,0.3,0.3,0.5,0.4l2.7,0.4L17.9,16.9z"/>
<path class="st0" d="M22.9,30.9c-0.1-0.3-0.5-0.5-0.9-0.4c-0.3,0.1-0.5,0.5-0.4,0.9l3.3,8.3l-3.1-1.2c-0.3-0.1-0.7,0-0.8,0.3l-1.5,3
	l-3.8-9.6c-0.1-0.3-0.5-0.5-0.9-0.4c-0.3,0.1-0.5,0.5-0.4,0.9l4.3,11c0.1,0.2,0.3,0.4,0.6,0.4h0c0.3,0,0.5-0.1,0.6-0.4l1.9-3.8
	l4,1.5c0.2,0.1,0.5,0,0.7-0.2c0.2-0.2,0.2-0.5,0.1-0.7L22.9,30.9z"/>
<path class="st0" d="M14,35.5c-0.3-0.1-0.7,0-0.9,0.4l-1.7,4.3l-1.5-3c-0.2-0.3-0.5-0.4-0.8-0.3L6,38l2.6-6.7c0.1-0.3,0-0.7-0.4-0.9
	c-0.3-0.1-0.7,0-0.9,0.4l-3.2,8c-0.1,0.2,0,0.5,0.1,0.7c0.2,0.2,0.5,0.2,0.7,0.1l4-1.5l1.9,3.8c0.1,0.2,0.3,0.4,0.6,0.4h0
	c0.3,0,0.5-0.2,0.6-0.4l2.2-5.7C14.5,36,14.3,35.6,14,35.5z"/>
</svg>
