<svg xmlns="http://www.w3.org/2000/svg" viewBox="0 0 22.4 24.73"><path d="m18.2,5.83h-.76v-1.63c0-2.87-1.33-4.2-4.2-4.2h-4.08c-2.87,0-4.2,1.33-4.2,4.2v1.63h-.76C1.49,5.83,0,7.33,0,10.03v5.83c0,2.71,1.49,4.2,4.2,4.2h1.63v.47c0,2.71,1.49,4.2,4.2,4.2h2.33c2.71,0,4.2-1.49,4.2-4.2v-.47h1.63c2.71,0,4.2-1.49,4.2-4.2v-5.83c0-2.71-1.49-4.2-4.2-4.2Zm-11.84-1.63c0-2.09.71-2.8,2.8-2.8h4.08c2.09,0,2.8.71,2.8,2.8v1.63H6.36v-1.63Zm8.81,16.33c0,1.94-.86,2.8-2.8,2.8h-2.33c-1.94,0-2.8-.86-2.8-2.8v-1.16s0,0,0,0v-2.8h7.93v3.97Zm5.83-4.67c0,1.94-.86,2.8-2.8,2.8h-1.63v-2.1h.47c.39,0,.7-.31.7-.7s-.31-.7-.7-.7H5.37c-.39,0-.7.31-.7.7s.31.7.7.7h.47v2.1h-1.63c-1.94,0-2.8-.86-2.8-2.8v-5.83c0-1.94.86-2.8,2.8-2.8h14c1.94,0,2.8.86,2.8,2.8v5.83Zm-11.43-4.67c0,.39-.31.7-.7.7h-3.5c-.39,0-.7-.31-.7-.7s.31-.7.7-.7h3.5c.39,0,.7.31.7.7Z"/></svg>