<svg xmlns="http://www.w3.org/2000/svg" viewBox="0 0 23.55 23.55"><path d="m11.78,0C5.28,0,0,5.28,0,11.78,0,13.8.52,15.8,1.52,17.56L.02,22.9c-.05.18,0,.36.13.49.1.1.23.16.37.16.04,0,.08,0,.12-.01l5.58-1.38c1.7.91,3.62,1.4,5.56,1.4,6.49,0,11.78-5.28,11.78-11.78S18.27,0,11.78,0Zm5.92,15.93c-.25.7-1.46,1.33-2.04,1.42-.52.08-1.18.11-1.9-.12-.44-.14-1-.32-1.72-.63-3.03-1.29-5.01-4.31-5.16-4.51-.15-.2-1.23-1.62-1.23-3.09s.78-2.19,1.06-2.49c.28-.3.6-.37.81-.37s.4,0,.58.01c.19,0,.44-.07.68.51.25.6.86,2.07.93,2.22.08.15.13.32.03.52-.1.2-.15.32-.3.5-.15.17-.32.39-.45.52-.15.15-.31.31-.13.61.18.3.78,1.28,1.68,2.07,1.15,1.02,2.13,1.33,2.43,1.48.3.15.48.12.65-.07.18-.2.76-.87.96-1.17.2-.3.4-.25.68-.15.28.1,1.76.82,2.07.97.3.15.5.22.58.35.08.12.08.72-.18,1.42Z"/></svg>