<?xml version="1.0" encoding="UTF-8"?><svg id="b" xmlns="http://www.w3.org/2000/svg" viewBox="0 0 27 19"><g id="c"><path d="m21.69,19H5.31c-2.93,0-5.31-2.39-5.31-5.34V5.34C0,2.39,2.38,0,5.31,0h16.37c2.93,0,5.31,2.39,5.31,5.34v8.32c0,2.94-2.38,5.34-5.31,5.34ZM5.31,1.59c-2.06,0-3.73,1.68-3.73,3.75v8.32c0,2.07,1.67,3.75,3.73,3.75h16.37c2.06,0,3.73-1.68,3.73-3.75V5.34c0-2.07-1.67-3.75-3.73-3.75H5.31Zm6.24,11.41c-.09,0-.19-.02-.27-.07-.18-.1-.28-.28-.28-.47v-5.92c0-.2.11-.38.29-.47.18-.1.39-.09.56.02l4.89,3c.16.1.26.27.26.46,0,.19-.1.36-.26.46l-4.89,2.92c-.09.05-.19.08-.29.08Z"/></g></svg>