<?xml version="1.0" encoding="utf-8"?>
<!-- Generator: Adobe Illustrator 23.0.1, SVG Export Plug-In . SVG Version: 6.00 Build 0)  -->
<svg version="1.1" id="Layer_1" xmlns="http://www.w3.org/2000/svg" xmlns:xlink="http://www.w3.org/1999/xlink" x="0px" y="0px"
	 viewBox="0 0 1059.4 327.2" style="enable-background:new 0 0 1059.4 327.2;" xml:space="preserve">
<style type="text/css">
	.st0{clip-path:url(#SVGID_2_);fill:#0E6433;}
	.st1{clip-path:url(#SVGID_2_);fill:#6DA943;}
	.st2{clip-path:url(#SVGID_2_);fill-rule:evenodd;clip-rule:evenodd;fill:#6DA943;}
	.st3{clip-path:url(#SVGID_2_);fill-rule:evenodd;clip-rule:evenodd;fill:#0E6433;}
</style>
<g>
	<defs>
		<rect id="SVGID_1_" x="-71.5" y="-20.1" width="1202.4" height="371.3"/>
	</defs>
	<clipPath id="SVGID_2_">
		<use xlink:href="#SVGID_1_"  style="overflow:visible;"/>
	</clipPath>
	<path class="st0" d="M73.4,131.8c-0.7-1.1-0.7-2.1-0.7-3.5c0.3-1.1,1.4-2.1,3.7-3.2c2.4-1.3,5.1-2.9,7.8-4.3
		c2.7-1.3,5.8-2.7,9.2-3.8c3.4-1.1,7.2-1.9,11.6-2.4c4.1-0.8,8.9-1.1,14.3-1.1c7.2,0,13.6,0.8,19.8,2.7c6.1,1.9,11.6,4.6,16,8
		c4.8,3.5,8.5,7.5,10.9,12.3c2.7,4.6,4.1,9.9,4.1,15.6v63c0,4.8-0.7,9.1-2.4,12.9c-2,3.8-4.1,7-7.2,9.7c-2.7,2.9-6.1,5.1-9.5,7
		c-3.7,1.9-7.5,3.5-11.2,4.6c-3.8,1.3-7.5,2.1-11.3,2.4c-3.4,0.5-6.8,0.8-9.5,0.8c-5.8,0-11.9-0.8-18.1-2.1
		c-6.5-1.6-12.3-4-17.4-7.2c-5.1-3.5-9.5-7.5-12.6-12.6c-3.4-5.4-5.1-11.5-5.1-18.8v-2.9c0-6.7,1.4-12.3,4.1-17.4
		c2.7-5.1,6.1-9.1,10.9-12.6c4.8-3.2,10.2-5.9,16.4-7.5c6.5-1.6,13.3-2.4,20.5-2.4h22.5V154c0-2.1-0.3-4.6-1.4-7
		c-1-2.4-2.4-4.8-4.4-6.7c-2-2.1-4.8-4-7.8-5.4c-3.1-1.3-7.2-2.1-11.6-2.1c-7.2,0-13,0.8-17.4,2.7c-4.4,1.9-8.2,3.8-11.6,5.9
		c-1,0.8-2.4,1.1-3.7,1.3c-1.4,0-2.4-0.5-3.4-1.6L73.4,131.8z M140.2,185.9h-13.3c-5.8,0-10.9,0.5-15,1.9c-3.7,1.1-7.2,2.7-9.5,4.8
		c-2.4,2.1-4.1,4.6-5.1,7.2c-0.7,2.9-1.4,5.6-1.4,8.8v2.4c0,3.8,0.7,7,2.4,9.4c1.4,2.7,3.4,4.8,5.8,6.4c2,1.6,4.8,2.7,7.5,3.5
		c2.7,0.8,5.1,1.1,7.8,1.1c2,0,4.4-0.3,6.8-0.8c2.7-0.8,4.8-1.6,6.8-3.2c2-1.3,3.7-3.2,5.1-5.4c1.4-2.1,2-4.8,2-8V185.9z"/>
	<path class="st0" d="M276.9,150.5c0-5.1,1.4-9.9,4.1-14.5c2.7-4.6,6.1-8.3,10.9-11.8c4.4-3.2,9.9-5.9,16.4-7.8
		c6.1-2.1,12.6-2.9,19.8-2.9c7.2,0,13.6,0.8,19.4,2.9c6.1,1.9,11.2,4.6,15.7,7.8c4.4,3.5,7.8,7.2,10.2,11.8
		c2.4,4.6,3.4,9.4,3.4,14.5v33c0,1.1-0.3,2.1-1.4,2.9c-1,0.8-2.4,1.1-3.8,1.1h-64.8v27.9c0,2.1,0.7,4.3,1.7,6.4
		c1,1.9,2.7,3.8,4.4,5.1c2,1.6,4.4,2.7,6.8,3.8c2.7,0.8,5.5,1.3,8.9,1.3c3.1,0,5.8-0.5,8.2-1.3c2.7-1.1,4.8-2.1,6.5-3.8
		c2-1.6,3.4-3.5,4.4-5.4c1-2.1,1.4-4.3,1.4-6.4v-4.6c0-1.1,0.3-1.9,1.4-2.4c0.7-0.5,1.7-0.8,3.1-0.8h19.1c1,0,1.7,0.3,2.7,0.5
		c0.7,0.5,1,1.3,1,2.9v4.6c0,5.1-1,9.9-3.4,14.5c-2.4,4.6-5.8,8.3-10.2,11.8c-4.1,3.2-9.2,5.9-15.3,7.8c-5.8,2.1-12.3,2.9-19.4,2.9
		c-7.2,0-13.6-1.1-19.8-2.9c-6.5-1.9-11.9-4.6-16.4-7.8c-4.8-3.5-8.2-7.5-10.9-11.8c-2.7-4.6-4.1-9.4-4.1-14.5V150.5z M306.9,170.9
		h42.3v-20.4c0-2.1-0.3-4.3-1.4-6.4c-1-1.9-2.4-3.8-4.4-5.1c-1.7-1.6-4.1-2.9-6.5-3.8c-2.7-0.8-5.5-1.3-8.2-1.3
		c-3.4,0-6.1,0.5-8.9,1.3c-2.4,0.8-4.8,2.1-6.8,3.8c-1.7,1.3-3.4,3.2-4.4,5.1c-1,2.1-1.7,4.3-1.7,6.4V170.9z"/>
	<path class="st0" d="M457.9,154.3c0-2.4-0.3-4.6-1.4-6.7c-1-1.9-2.4-3.8-4.1-5.4c-1.7-1.6-4.1-2.9-6.8-4c-2.7-0.8-5.5-1.3-8.9-1.3
		c-3.1,0-6.1,0.5-8.5,1.3c-2.7,0.8-5.1,2.1-6.8,3.5c-1.7,1.6-3.4,3.5-4.4,5.4c-1,2.1-1.7,4.3-1.7,6.7v94.4c0,1.3-0.3,2.4-1.4,3.2
		c-0.7,0.8-1.7,1.1-3.1,1.1h-21.1c-1,0-2-0.3-3.1-1.1c-1-0.8-1.4-1.9-1.4-3.2v-94.4c0-5.1,1.4-9.9,3.7-14.5
		c2.4-4.6,6.1-8.6,10.6-12.1c4.4-3.5,9.9-6.2,16-8.3c6.1-1.9,13-2.9,20.1-2.9c8.5,0,15.7,1.1,22.2,2.9c6.5,2.1,11.9,4.8,16.4,8
		c4.4,3.5,7.8,7.5,10.2,12.1c2.4,4.6,3.4,9.4,3.4,14.7v94.7c0,1.3-0.3,2.1-1.4,2.9c-1,0.8-2,1.1-3.1,1.1h-21.1c-1,0-2-0.3-3.1-1.1
		c-1-0.8-1.4-1.6-1.4-2.9V154.3z"/>
	<path class="st1" d="M594.8,292.6c0,1.1-0.3,1.9-1,2.4c-0.7,0.8-1.7,1.1-3.4,1.1h-9.9c-1,0-2-0.3-2.4-1.1c-0.7-0.8-1-1.6-1-2.4
		v-18.8c0-6.4-2-11.3-6.5-13.7c-4.4-2.7-10.9-3.8-19.4-3.8l-20.5-0.3h-2c-4.8,0-9.2-0.8-13.3-2.4c-4.1-1.6-7.2-3.5-9.9-6.2
		c-2.7-2.4-4.8-5.1-6.1-8c-1.4-2.9-2-5.6-2-8.6v-1.3c0-5.6,1.4-10.5,3.7-14.7c2.4-4,4.8-7.5,7.8-10.2c-3.4-3.2-5.8-6.7-7.8-10.5
		c-1.7-4-2.7-8-2.7-12.9v-30c0-5.1,1.4-9.7,3.7-13.9c2.4-4.3,5.5-8,9.5-11.3c4.1-3.2,8.9-5.6,14.3-7.5c5.5-1.9,11.2-2.7,17.4-2.7
		c3.1,0,5.8,0.3,8.5,0.5c3.1,0.5,5.8,1.1,8.2,1.9h30c1.7,0,3.1,0.3,3.7,0.8c0.7,0.5,1,1.3,1,2.1v5.1c0,0.8-0.3,1.3-1,2.1
		c-0.7,0.8-2,1.1-3.7,1.1h-10.6c3.1,2.9,5.1,6.2,6.8,9.9c1.7,3.8,2.4,7.8,2.4,12.1v29.5c0,5.4-1,10.2-3.4,14.5
		c-2.4,4.6-5.8,8.3-9.9,11.3c-3.7,3.2-8.5,5.6-14,7.5c-5.8,1.9-11.6,2.7-17.7,2.7c-8.5,0-16-1.6-22.8-4.6c-2.7,2.1-4.4,4.3-5.5,6.7
		c-0.7,2.4-1.4,5.6-1.4,9.1v0.5c0,1.9,0.7,3.8,1.4,5.6c1,1.9,2.4,3.5,4.4,4.8c1.7,1.3,3.8,2.4,6.1,3.2c2.7,0.8,5.5,1.3,8.2,1.3h20.5
		c6.1,0,11.6,0.5,16.7,1.3c5.1,0.8,9.2,2.4,12.6,4.6c3.4,2.1,6.1,5.1,8.2,8.6c1.7,3.8,2.7,8.3,2.7,13.4V292.6z M516.1,182.7
		c0,2.9,0.7,5.6,2,8.3c1.4,2.7,3.4,4.8,5.8,7c2.7,1.9,5.5,3.5,8.9,4.6c3.4,1.3,6.8,1.9,10.9,1.9c3.8,0,7.5-0.5,10.6-1.9
		c3.4-1.1,6.5-2.7,8.9-4.6c2.4-2.1,4.4-4.3,5.8-7c1.4-2.7,2-5.4,2-8.3v-32.2c0-2.9-0.7-5.9-2-8.6c-1.4-2.7-3.4-5.1-5.8-7
		c-2.4-1.9-5.5-3.5-8.9-4.6c-3.1-1.3-6.8-1.9-10.6-1.9c-4.1,0-7.5,0.5-10.9,1.9c-3.4,1.1-6.1,2.7-8.9,4.6c-2.4,1.9-4.4,4.3-5.8,7
		c-1.4,2.7-2,5.4-2,8.3V182.7z"/>
	<path class="st1" d="M599.4,153.7c0-6.5,1.5-12.1,4.5-16.8c3-4.7,6.7-8.7,11.2-11.8c4.5-3.1,9.4-5.4,14.8-6.9
		c5.4-1.5,10.5-2.2,15.2-2.2c3.2,0,6.4,0,9.4,0.1c3,0.1,5.6,0.3,7.7,0.5c3.2,0.4,4.8,1.7,4.8,3.7v5.5c0,1.5-0.6,2.5-1.9,3
		c-1.2,0.5-2.7,0.7-4.3,0.5c-2.2-0.2-4.3-0.3-6.4-0.3h-6.4c-4.9,0-9.3,0.7-13.1,2.1c-3.8,1.4-7.1,3.3-9.7,5.7
		c-2.7,2.4-4.7,5.2-6.1,8.3c-1.4,3.1-2.1,6.3-2.1,9.7v93.2c0,1.5-0.6,2.6-1.8,3.3c-1.1,0.7-2.2,1-3.1,1h-8.9c-0.9,0-1.8-0.3-2.7-1
		c-0.9-0.7-1.3-1.6-1.3-2.8V153.7z"/>
	<path class="st1" d="M671.8,133.4c-0.3-0.8-0.7-1.9-0.3-2.7c0-1.1,1-1.9,2.7-2.9c1.7-1.3,4.1-2.7,6.1-4c2.4-1.3,5.1-2.7,7.8-3.8
		c3.1-1.3,6.5-2.1,10.2-2.9c3.7-0.8,8.2-1.1,13.3-1.1c7.2,0,13.3,1.1,19.1,2.9c5.5,1.9,10.2,4.6,14.3,7.8c3.8,3.5,6.8,7.2,8.9,11.5
		c2,4.3,3.1,8.8,3.1,13.4v68.6c0,6.4-1.7,11.8-4.8,16.4c-3.1,4.3-7.2,7.8-11.6,10.7c-4.8,2.7-9.5,4.6-14.7,5.6
		c-5.1,1.3-9.9,1.9-13.6,1.9c-5.5,0-10.9-0.8-16.7-2.1c-5.8-1.6-10.9-3.8-15.7-7c-4.8-3.2-8.5-7.2-11.6-12.1
		c-3.1-4.8-4.8-10.7-4.8-17.7v-3.5c0-6.2,1.4-11.8,3.4-16.9c2.4-5.1,5.8-9.4,10.2-12.9c4.4-3.5,9.5-6.4,15.7-8.3
		c6.5-1.9,13.3-2.7,20.8-2.7h25.6v-20.1c0-2.1-0.3-4.6-1.7-7.5c-1-2.7-2.7-5.1-5.1-7.5c-2.4-2.7-5.5-4.6-9.2-6.2
		c-3.8-1.6-8.5-2.4-14-2.4c-3.7,0-7.2,0.3-9.9,0.8c-2.7,0.5-5.1,1.3-7.5,2.4c-2,0.8-4.1,1.9-5.8,3.2c-1.7,1.1-3.4,2.4-5.1,3.8
		c-1,0.5-2.4,1.1-3.4,1.1c-1.4,0-2.4-0.5-3.1-1.3L671.8,133.4z M739.3,183h-18.4c-7.5,0-14,0.8-19.1,2.4c-4.8,1.6-8.9,3.8-11.9,6.4
		c-3.1,2.4-5.5,5.6-6.5,9.1c-1.4,3.8-2,7.2-2,11.3v3.5c0,4.8,1,9.1,3.1,12.3c2,3.5,4.8,6.2,7.8,8.3c3.1,2.1,6.5,3.5,9.9,4.6
		c3.4,0.8,6.8,1.3,9.5,1.3c3.1,0,5.8-0.5,9.2-1.1c3.1-0.8,6.1-2.1,8.9-4c2.7-1.9,5.1-4,6.8-7c1.7-2.9,2.7-6.4,2.7-10.7V183z"/>
	<path class="st1" d="M764.6,216.5c0-2.4,1.7-3.8,5.1-3.8h7.8c1.4,0,2.4,0.3,3.1,1.1c0.7,0.8,1,1.6,1,2.7v4.6c0,2.9,0.7,5.9,2,8.3
		c1.4,2.7,3.4,4.8,5.8,6.7c2.4,1.9,5.5,3.5,8.9,4.6c3.4,1.1,7.2,1.6,11.3,1.6c3.8,0,7.2-0.5,10.6-1.9c3.4-1.1,6.1-2.7,8.5-4.8
		c2.4-1.9,4.4-4.3,5.8-7c1.4-2.7,2-5.4,2-8.6c0-2.9-0.7-5.6-2.4-8.3c-1.7-2.4-4.1-5.1-7.5-7.8c-3.1-2.7-7.2-5.4-12.3-8
		c-4.8-2.9-10.2-6.2-16.7-9.7c-4.1-2.1-7.8-4.3-11.6-6.7c-4.1-2.4-7.5-4.8-10.2-7.8c-3.1-2.9-5.5-5.9-7.2-9.7
		c-1.7-3.5-2.7-7.5-2.7-12.1c0-4.8,1-9.1,3.1-13.4c2.4-4,5.1-7.8,8.9-10.7c4.1-3.2,8.5-5.6,13.6-7.2c5.5-1.9,11.3-2.7,17.4-2.7
		c6.5,0,12.3,0.8,17.7,2.7c5.5,1.6,10.2,4,14,7.2c3.8,2.9,6.8,6.4,9.2,10.7c2,4,3.1,8.6,3.1,13.4v4.8c0,1.9-1.4,2.9-4.4,2.9h-8.2
		c-2.7,0-4.1-1.1-4.1-3.2v-4.8c0-2.9-0.7-5.6-2-8.3c-1.4-2.7-3.4-4.8-5.8-7c-2-1.9-5.1-3.2-8.5-4.6c-3.1-1.1-6.8-1.6-10.6-1.6
		c-3.8,0-7.2,0.5-10.2,1.6c-3.4,1.3-6.1,2.7-8.2,4.8c-2.4,1.9-4.1,4.3-5.1,7c-1.4,2.7-2,5.4-2,8.3c0,3.2,0.7,5.6,1.4,7.8
		c1,2.4,2.7,4.3,5.1,6.2c2,2.1,5.1,4,8.9,5.9c3.8,2.1,8.2,4.6,13.3,7.2c4.8,2.4,9.9,5.1,14.7,8c5.1,2.7,9.9,5.9,13.6,9.1
		c4.1,3.5,7.5,7.2,10.2,11.5c2.4,4.3,3.7,8.8,3.7,14.2c0,4.8-1,9.4-3.1,13.4c-2.4,4.3-5.5,8-9.2,11.3c-4.1,2.9-8.9,5.6-14.3,7.5
		c-5.5,1.9-11.3,2.7-17.7,2.7c-7.8,0-14.3-0.8-20.1-2.7c-5.5-1.9-10.2-4.3-14.3-7.5c-3.8-2.9-6.5-6.7-8.5-10.7
		c-1.7-4.3-2.7-8.6-2.7-13.1V216.5z"/>
	<path class="st1" d="M861.1,216.5c0-2.4,1.7-3.8,5.1-3.8h7.8c1.4,0,2.4,0.3,3.1,1.1c0.7,0.8,1,1.6,1,2.7v4.6c0,2.9,0.7,5.9,2,8.3
		c1.4,2.7,3.4,4.8,5.8,6.7c2.4,1.9,5.5,3.5,8.9,4.6s7.2,1.6,11.3,1.6c3.7,0,7.2-0.5,10.6-1.9c3.4-1.1,6.1-2.7,8.5-4.8
		c2.4-1.9,4.4-4.3,5.8-7c1.4-2.7,2-5.4,2-8.6c0-2.9-0.7-5.6-2.4-8.3c-1.7-2.4-4.1-5.1-7.5-7.8c-3.1-2.7-7.2-5.4-12.3-8
		c-4.8-2.9-10.2-6.2-16.7-9.7c-4.1-2.1-7.8-4.3-11.6-6.7c-4.1-2.4-7.5-4.8-10.2-7.8c-3.1-2.9-5.5-5.9-7.2-9.7
		c-1.7-3.5-2.7-7.5-2.7-12.1c0-4.8,1-9.1,3.1-13.4c2.4-4,5.1-7.8,8.9-10.7c4.1-3.2,8.5-5.6,13.6-7.2c5.5-1.9,11.3-2.7,17.4-2.7
		c6.5,0,12.3,0.8,17.7,2.7c5.5,1.6,10.2,4,14,7.2c3.8,2.9,6.8,6.4,9.2,10.7c2,4,3.1,8.6,3.1,13.4v4.8c0,1.9-1.4,2.9-4.4,2.9h-8.2
		c-2.7,0-4.1-1.1-4.1-3.2v-4.8c0-2.9-0.7-5.6-2-8.3c-1.4-2.7-3.4-4.8-5.8-7c-2-1.9-5.1-3.2-8.5-4.6c-3.1-1.1-6.8-1.6-10.6-1.6
		c-3.8,0-7.2,0.5-10.2,1.6c-3.4,1.3-6.1,2.7-8.2,4.8c-2.4,1.9-4.1,4.3-5.1,7c-1.4,2.7-2,5.4-2,8.3c0,3.2,0.7,5.6,1.4,7.8
		c1,2.4,2.7,4.3,5.1,6.2c2,2.1,5.1,4,8.9,5.9c3.8,2.1,8.2,4.6,13.3,7.2c4.8,2.4,9.9,5.1,14.7,8c5.1,2.7,9.9,5.9,13.6,9.1
		c4.1,3.5,7.5,7.2,10.2,11.5c2.4,4.3,3.7,8.8,3.7,14.2c0,4.8-1,9.4-3.1,13.4c-2.4,4.3-5.5,8-9.2,11.3c-4.1,2.9-8.9,5.6-14.3,7.5
		c-5.5,1.9-11.3,2.7-17.7,2.7c-7.8,0-14.3-0.8-20.1-2.7c-5.5-1.9-10.2-4.3-14.3-7.5c-3.8-2.9-6.5-6.7-8.5-10.7
		c-1.7-4.3-2.7-8.6-2.7-13.1V216.5z"/>
	<path class="st2" d="M217.5,242.7h-20.4h-0.1c-14.4-115.9-25.2-133.7-80.4-139.6C149.2,97.2,198.7,80.5,217.5,242.7"/>
	<path class="st2" d="M197.1,242.7c53-198,101.9-218.2,128-204.3c-38.3-5.9-79.3,90.6-107.4,206
		C210.8,244.8,203.9,244.3,197.1,242.7"/>
	<path class="st3" d="M210.7,178.3c-14.2-60.4-35.3-79.5-52.4-81.6c14.9-3.4,39.6-5.8,61.4,55C216.6,160.4,213.6,169.3,210.7,178.3"
		/>
	<path class="st3" d="M223.2,244C272.8,49.1,320.2,22.1,350.8,50.1c-33.9-18.8-81.7,65.7-106.1,188.1
		C237.7,241.1,230.5,243,223.2,244"/>
	<path class="st1" d="M967.3,114.9c0-1.7,0.4-3.3,1.1-4.8c0.7-1.5,1.7-2.8,2.9-3.9c1.2-1.1,2.6-2,4.2-2.6c1.6-0.6,3.3-1,5.1-1
		c1.8,0,3.5,0.3,5.1,1c1.6,0.7,3,1.5,4.2,2.6c1.2,1.1,2.2,2.4,2.9,3.9c0.7,1.5,1.1,3.1,1.1,4.8v7.4c0,1.7-0.4,3.3-1.1,4.8
		c-0.7,1.5-1.7,2.8-2.9,3.9c-1.2,1.1-2.6,2-4.2,2.6c-1.6,0.6-3.3,1-5,1c-1.8,0-3.5-0.3-5.1-1c-1.6-0.6-3-1.5-4.2-2.6
		c-1.2-1.1-2.2-2.4-2.9-3.9c-0.7-1.5-1.1-3.1-1.1-4.8V114.9z M971.6,121.8c0,1.3,0.2,2.4,0.7,3.4c0.4,1,1.1,1.9,1.9,2.6
		c0.8,0.7,1.8,1.3,2.9,1.7c1.1,0.4,2.3,0.6,3.6,0.6c1.3,0,2.5-0.2,3.5-0.6c1.1-0.4,2-0.9,2.8-1.6c0.8-0.7,1.4-1.6,1.9-2.6
		c0.5-1,0.7-2.2,0.7-3.5v-6.7c0-1.1-0.2-2.1-0.6-3.1c-0.4-1-1-1.9-1.8-2.6c-0.8-0.8-1.7-1.4-2.8-1.8c-1.1-0.4-2.4-0.7-3.8-0.7
		s-2.6,0.2-3.8,0.7c-1.1,0.4-2.1,1-2.8,1.8c-0.8,0.7-1.4,1.6-1.8,2.6c-0.4,1-0.6,2-0.6,3.1V121.8z M975.9,110.1
		c0-0.4,0.2-0.5,0.5-0.5h4.5c0.7,0,1.4,0.1,2,0.4c0.6,0.3,1.1,0.6,1.6,1c0.4,0.4,0.8,0.9,1,1.5c0.2,0.6,0.4,1.2,0.4,1.9v2.3
		c0,0.9-0.2,1.6-0.5,2.2c-0.3,0.6-0.7,1.1-1.2,1.5l1.8,6.8c0,0.1,0,0.2,0,0.4c0,0.1-0.1,0.2-0.2,0.2h-3c-0.2,0-0.4-0.2-0.5-0.5
		l-1.2-5.7h-1.4v5.6c0,0.3-0.2,0.5-0.5,0.5h-2.8c-0.3,0-0.5-0.2-0.5-0.5V110.1z M979.6,113.2v4.8h1.3c0.4,0,0.7-0.1,0.9-0.4
		c0.2-0.2,0.3-0.5,0.3-0.9v-2.4c0-0.4-0.1-0.7-0.3-0.9c-0.2-0.2-0.5-0.3-0.9-0.3H979.6z"/>
</g>
</svg>
