<svg width="103" height="108" viewBox="0 0 103 108" fill="none" xmlns="http://www.w3.org/2000/svg">
<g filter="url(#filter0_f_304_2330)">
<path d="M31.1157 100.789L31.4205 101.185L31.1157 100.789C23.6007 106.567 12.7381 101.498 12.3598 92.0295L12.3598 92.0291C11.5575 72.3854 9.64066 43.8832 5.08448 18.2969C3.42952 8.92931 13.0398 1.61286 21.5966 5.6128C21.5966 5.61281 21.5966 5.61281 21.5966 5.61282L56.5614 21.9608L91.5262 38.3089L91.738 37.8559L91.5263 38.3089C100.083 42.3089 100.596 54.3902 92.3981 59.0773L92.2595 59.1565L92.2443 59.1894C69.727 72.0506 46.6975 88.8102 31.1157 100.789Z" stroke="url(#paint0_linear_304_2330)"/>
</g>
<defs>
<filter id="filter0_f_304_2330" x="0.396484" y="-0.00634766" width="102.359" height="107.744" filterUnits="userSpaceOnUse" color-interpolation-filters="sRGB">
<feFlood flood-opacity="0" result="BackgroundImageFix"/>
<feBlend mode="normal" in="SourceGraphic" in2="BackgroundImageFix" result="shape"/>
<feGaussianBlur stdDeviation="2" result="effect1_foregroundBlur_304_2330"/>
</filter>
<linearGradient id="paint0_linear_304_2330" x1="56.7876" y1="21.3536" x2="19.1245" y2="102.707" gradientUnits="userSpaceOnUse">
<stop stop-color="white"/>
<stop offset="1" stop-color="white" stop-opacity="0.5"/>
</linearGradient>
</defs>
</svg>
